<?xml version="1.0" standalone="no"?>
<!DOCTYPE svg PUBLIC "-//W3C//DTD SVG 20010904//EN"
 "http://www.w3.org/TR/2001/REC-SVG-20010904/DTD/svg10.dtd">
<svg version="1.0" xmlns="http://www.w3.org/2000/svg"
 width="377.000000pt" height="106.000000pt" viewBox="0 0 377.000000 106.000000"
 preserveAspectRatio="xMidYMid meet">

<g transform="translate(0.000000,106.000000) scale(0.100000,-0.100000)"
fill="#000000" stroke="none">
<path d="M288 1053 c7 -3 16 -2 19 1 4 3 -2 6 -13 5 -11 0 -14 -3 -6 -6z"/>
<path d="M514 1042 c2 -4 -12 -6 -33 -4 -25 3 -41 -1 -50 -12 -16 -20 -10 -50
11 -54 12 -2 15 2 11 17 -6 24 9 28 27 6 14 -17 6 -46 -18 -67 -22 -20 -92
-33 -92 -18 0 6 5 8 11 4 7 -4 10 -1 7 7 -3 8 -14 14 -26 14 -11 0 -24 4 -28
8 -10 10 -26 9 -44 -3 -13 -8 -12 -11 5 -24 19 -15 18 -15 -16 -16 -51 0 -84
-28 -75 -63 7 -28 40 -52 56 -42 17 10 11 22 -12 29 -18 4 -20 8 -10 18 29 29
70 -37 71 -114 1 -20 6 -40 11 -43 6 -4 10 32 10 99 l0 106 215 0 215 0 0
-105 c0 -63 4 -105 10 -105 6 0 10 17 11 38 0 58 30 126 57 130 15 2 22 -2 22
-12 0 -9 -8 -16 -20 -16 -22 0 -27 -16 -7 -23 23 -8 47 6 53 30 5 19 12 24 28
21 20 -4 22 0 22 48 0 41 -3 49 -12 36 -7 -9 -16 -12 -25 -7 -8 5 -5 -2 6 -15
18 -21 18 -23 2 -17 -15 6 -16 4 -7 -13 7 -12 7 -20 1 -20 -10 0 -27 39 -23
53 1 4 -3 7 -9 7 -6 0 -8 -7 -5 -16 5 -12 2 -15 -10 -10 -8 3 -27 6 -40 6 -15
0 -24 6 -24 16 0 8 5 12 10 9 6 -3 10 -2 10 4 0 14 -41 25 -49 13 -3 -5 -17
-9 -30 -8 -13 0 -26 -5 -29 -13 -3 -8 0 -11 7 -7 6 4 11 2 11 -4 0 -8 -11 -9
-32 -5 -47 10 -62 20 -78 50 -13 24 -13 28 4 41 23 16 42 8 25 -12 -9 -11 -8
-14 4 -14 22 0 30 17 23 46 -5 19 -13 24 -39 24 -18 0 -39 -6 -46 -12 -11 -11
-13 -10 -8 5 7 19 -3 23 -20 6 -8 -8 -13 -8 -17 0 -4 6 -12 11 -17 11 -6 0 -8
-3 -5 -8z m39 -130 c-34 -5 -38 2 -23 39 l13 31 18 -33 17 -34 -25 -3z"/>
<path d="M790 1030 c0 -5 7 -13 16 -18 9 -5 15 -13 14 -18 -2 -5 6 -14 18 -19
11 -6 28 -17 38 -25 16 -14 16 -13 3 10 -8 13 -21 30 -29 37 -8 7 -10 13 -5
13 6 0 -3 7 -19 15 -33 18 -36 18 -36 5z m55 -40 c3 -5 2 -10 -4 -10 -5 0 -13
5 -16 10 -3 6 -2 10 4 10 5 0 13 -4 16 -10z"/>
<path d="M243 1013 c-3 -10 -8 -21 -10 -25 -5 -9 36 3 43 13 3 5 -3 6 -12 2
-13 -5 -16 -3 -11 10 3 9 4 17 1 17 -2 0 -7 -8 -11 -17z"/>
<path d="M2198 1009 c-25 -14 -22 -42 7 -69 14 -13 25 -29 25 -36 0 -22 -23
-28 -37 -9 -12 18 -13 18 -13 -3 0 -23 21 -29 54 -16 25 9 19 57 -9 84 -32 30
-32 44 0 37 16 -3 24 0 22 7 -5 15 -28 18 -49 5z"/>
<path d="M1280 957 c0 -58 19 -87 56 -87 39 0 57 24 62 84 3 44 1 56 -10 56
-10 0 -13 -9 -10 -35 6 -46 -4 -81 -24 -89 -29 -11 -44 13 -44 70 0 41 -4 54
-15 54 -11 0 -15 -13 -15 -53z"/>
<path d="M1458 940 c-2 -55 0 -70 11 -70 10 0 12 11 9 45 -3 25 -3 45 0 45 4
0 28 -21 54 -47 l48 -47 0 72 c0 46 -4 72 -11 72 -8 0 -9 -15 -5 -45 4 -25 4
-45 0 -45 -3 0 -24 20 -46 45 -22 25 -43 45 -48 45 -5 0 -10 -32 -12 -70z"/>
<path d="M1650 940 c0 -60 3 -70 18 -70 15 0 17 9 14 70 -3 52 -7 70 -18 70
-11 0 -14 -16 -14 -70z"/>
<path d="M1751 959 c11 -29 25 -61 31 -73 11 -20 11 -20 22 4 5 14 20 46 32
73 17 37 19 47 8 47 -8 0 -14 -5 -14 -10 0 -6 -7 -27 -16 -48 l-15 -37 -16 35
c-8 19 -16 41 -16 48 0 6 -9 12 -19 12 -17 0 -17 -2 3 -51z"/>
<path d="M1900 939 l0 -70 37 3 c20 2 38 8 40 14 2 7 -6 10 -22 7 -22 -5 -25
-2 -25 22 0 22 4 26 20 22 13 -3 20 0 20 9 0 9 -8 14 -17 12 -12 -2 -19 5 -21
21 -3 21 -1 23 22 17 15 -4 26 -2 26 4 0 5 -18 10 -40 10 l-40 0 0 -71z"/>
<path d="M2035 940 c0 -57 3 -70 16 -70 12 0 14 7 11 30 -2 17 0 30 5 30 5 0
20 -13 35 -30 14 -16 34 -30 43 -30 12 0 9 8 -14 32 -22 23 -27 36 -20 45 6 6
9 22 7 35 -2 19 -10 24 -43 26 l-40 3 0 -71z m59 45 c8 -21 -3 -45 -20 -45 -9
0 -14 11 -14 30 0 32 23 42 34 15z"/>
<path d="M2310 940 c0 -60 3 -70 18 -70 15 0 17 9 14 70 -3 52 -7 70 -18 70
-11 0 -14 -16 -14 -70z"/>
<path d="M2415 939 l0 -71 49 5 c118 11 116 137 -1 137 l-48 0 0 -71z m87 44
c37 -33 8 -110 -39 -101 -14 3 -19 14 -21 61 -3 53 -2 57 19 57 12 0 31 -7 41
-17z"/>
<path d="M2610 953 c-13 -32 -28 -64 -33 -70 -7 -9 -5 -13 6 -13 8 0 18 11 21
25 5 18 13 25 30 25 17 0 26 -7 30 -25 4 -14 13 -25 22 -25 9 0 14 3 12 8 -2
4 -14 35 -27 70 -13 34 -27 62 -31 62 -4 0 -18 -26 -30 -57z m26 -20 c-10 -10
-19 5 -10 18 6 11 8 11 12 0 2 -7 1 -15 -2 -18z"/>
<path d="M2745 940 l0 -70 41 0 c56 0 94 30 94 74 0 46 -26 66 -86 66 l-49 0
0 -70z m88 48 c28 -22 32 -63 8 -87 -12 -12 -30 -21 -41 -21 -18 0 -20 7 -20
60 0 51 3 60 18 60 10 0 26 -6 35 -12z"/>
<path d="M2935 940 l0 -70 38 0 c20 0 37 5 37 10 0 6 -11 10 -25 10 -20 0 -25
5 -25 25 0 20 5 25 25 25 14 0 25 5 25 11 0 5 -10 9 -22 7 -18 -2 -24 3 -26
21 -3 21 0 23 22 19 14 -3 26 -1 26 3 0 5 -17 9 -37 9 l-38 0 0 -70z"/>
<path d="M166 993 c-3 -3 -6 -16 -5 -27 1 -18 2 -18 9 4 l8 25 1 -27 c1 -16
-3 -28 -7 -28 -5 0 -8 -23 -8 -51 1 -39 -3 -54 -18 -64 -10 -8 -23 -12 -27 -9
-15 9 -10 -13 6 -26 17 -14 22 -115 5 -105 -5 3 -10 1 -10 -5 0 -6 -6 -8 -12
-5 -7 4 -4 -1 6 -9 11 -9 23 -16 26 -16 3 0 12 -16 19 -36 10 -27 16 -33 22
-23 5 9 3 17 -6 22 -8 4 -17 24 -21 44 -5 28 -3 38 10 45 15 8 15 11 1 24 -36
36 -5 128 57 169 21 14 38 33 38 42 0 15 -2 14 -14 -2 -11 -15 -17 -17 -28 -7
-8 6 -18 9 -21 5 -4 -3 -7 8 -7 25 0 31 -11 47 -24 35z"/>
<path d="M102 860 c0 -19 2 -27 5 -17 2 9 2 25 0 35 -3 9 -5 1 -5 -18z"/>
<path d="M350 760 c0 -66 -4 -120 -9 -120 -10 0 -9 -26 2 -36 4 -4 7 -36 7
-71 0 -80 17 -120 69 -165 76 -64 167 -68 249 -9 48 34 82 113 82 189 0 35 4
61 9 58 5 -3 9 5 9 19 0 14 -4 22 -9 19 -5 -3 -9 49 -9 115 l0 121 -200 0
-200 0 0 -120z m390 -72 c0 -101 -5 -200 -11 -221 -6 -21 -26 -56 -46 -78 -80
-88 -215 -80 -290 18 l-28 36 -3 214 -3 213 190 0 191 0 0 -182z"/>
<path d="M619 743 c-13 -16 -12 -17 4 -4 9 7 17 15 17 17 0 8 -8 3 -21 -13z"/>
<path d="M550 717 c0 -17 95 -165 101 -156 4 7 8 5 12 -4 8 -20 -1 -27 -34
-27 -15 0 -31 -4 -34 -10 -3 -5 -15 -10 -26 -10 -14 0 -19 7 -20 28 l-1 27 -7
-25 c-7 -27 -45 -40 -64 -21 -19 19 -47 13 -47 -9 0 -11 5 -20 11 -20 7 0 17
-7 23 -15 7 -9 32 -15 72 -17 61 -2 62 -2 102 41 22 24 44 41 49 38 6 -4 10 1
10 9 0 8 -5 13 -11 11 -6 -2 -27 22 -47 52 -42 64 -88 120 -89 108z"/>
<path d="M398 563 c6 -2 18 -2 25 0 6 3 1 5 -13 5 -14 0 -19 -2 -12 -5z"/>
<path d="M468 563 c7 -3 16 -2 19 1 4 3 -2 6 -13 5 -11 0 -14 -3 -6 -6z"/>
<path d="M388 483 c7 -3 16 -2 19 1 4 3 -2 6 -13 5 -11 0 -14 -3 -6 -6z"/>
<path d="M400 458 c0 -4 14 -8 32 -8 17 0 28 3 24 8 -10 10 -56 10 -56 0z"/>
<path d="M645 450 c3 -5 21 -10 38 -9 27 0 29 2 12 9 -28 12 -57 12 -50 0z"/>
<path d="M488 398 c6 -6 18 -8 28 -6 14 3 12 5 -9 10 -19 3 -25 2 -19 -4z"/>
<path d="M559 397 c5 -5 24 -4 42 1 l34 10 -42 -1 c-23 -1 -38 -6 -34 -10z"/>
<path d="M980 855 c-19 -22 -8 -25 13 -3 9 10 13 18 8 18 -5 0 -14 -7 -21 -15z"/>
<path d="M2278 811 l-33 -30 48 16 c26 9 46 20 44 26 -7 21 -26 17 -59 -12z"/>
<path d="M956 798 c-3 -13 -5 -41 -4 -63 1 -40 1 -40 5 -6 3 19 11 40 18 45
12 9 12 14 1 29 -13 16 -14 16 -20 -5z"/>
<path d="M880 773 c0 -4 11 -13 25 -20 14 -6 23 -7 19 -2 -8 13 -44 31 -44 22z"/>
<path d="M81 740 c-1 -28 14 -58 25 -47 4 3 2 12 -3 19 -6 7 -13 22 -16 33 -4
16 -5 16 -6 -5z"/>
<path d="M1012 735 c0 -16 2 -22 5 -12 2 9 2 23 0 30 -3 6 -5 -1 -5 -18z"/>
<path d="M1354 742 c-54 -26 -84 -75 -84 -138 0 -95 68 -153 178 -154 71 0 92
12 91 53 0 30 -1 31 -11 10 -14 -30 -67 -44 -113 -32 -77 21 -109 117 -71 210
8 19 58 49 84 49 39 0 84 -23 95 -49 11 -26 11 -26 15 13 2 21 1 40 -2 43 -3
3 -36 7 -73 10 -53 3 -77 -1 -109 -15z"/>
<path d="M1697 753 c-10 -17 -97 -242 -97 -251 0 -6 -11 -19 -25 -30 l-24 -19
43 1 c32 1 42 4 35 13 -7 7 -5 24 5 48 15 35 17 36 63 33 46 -3 48 -4 62 -45
15 -42 31 -53 80 -53 24 0 25 0 5 18 -11 10 -27 36 -36 58 -9 21 -33 80 -53
129 -39 94 -49 112 -58 98z m16 -115 c2 -13 8 -31 12 -40 6 -15 2 -18 -28 -18
l-36 0 16 45 c16 47 27 51 36 13z"/>
<path d="M1827 730 c-7 -32 -2 -36 18 -16 9 9 32 16 51 16 l34 0 0 -128 c0
-70 -4 -132 -9 -137 -6 -6 10 -10 45 -11 35 0 49 3 39 8 -12 7 -15 33 -15 138
l0 130 30 0 c17 0 39 -9 50 -20 l20 -20 0 33 0 32 -129 0 -130 0 -4 -25z"/>
<path d="M2204 746 c-17 -8 -43 -29 -58 -48 -21 -28 -26 -46 -26 -92 0 -97 46
-148 140 -154 39 -2 65 2 90 15 110 57 116 217 10 271 -50 25 -110 28 -156 8z
m117 -29 c42 -28 64 -89 55 -152 -9 -57 -32 -84 -76 -91 -93 -14 -161 112
-114 211 26 57 80 69 135 32z"/>
<path d="M2975 746 c-66 -28 -105 -106 -90 -176 10 -44 60 -98 103 -110 43
-11 132 -13 148 -2 6 4 14 23 18 42 l6 35 -23 -29 c-19 -23 -31 -29 -65 -29
-103 0 -167 120 -112 211 41 67 144 69 176 4 11 -23 12 -22 16 13 4 32 1 38
-20 46 -34 13 -122 10 -157 -5z"/>
<path d="M3261 624 c-30 -75 -62 -143 -72 -152 -16 -16 -15 -17 26 -17 24 0
38 3 32 7 -8 5 -7 18 2 47 12 41 12 41 60 41 48 0 49 -1 66 -42 19 -49 29 -58
68 -58 l28 0 -19 25 c-11 14 -43 83 -72 155 -29 71 -55 130 -59 130 -4 0 -31
-61 -60 -136z m75 -11 l13 -33 -35 0 c-38 0 -38 2 -11 70 7 18 11 21 14 10 3
-8 12 -30 19 -47z"/>
<path d="M2492 743 c12 -3 18 -21 23 -64 7 -63 -2 -197 -15 -214 -5 -6 23 -11
81 -13 89 -3 89 -2 99 24 13 32 5 44 -13 20 -9 -13 -24 -17 -52 -14 l-40 3 -3
127 c-2 114 -1 127 15 131 10 3 -11 5 -47 5 -36 0 -58 -2 -48 -5z"/>
<path d="M2733 743 c15 -4 17 -19 17 -137 0 -72 -4 -136 -9 -141 -6 -6 10 -10
44 -11 48 0 52 1 34 14 -17 12 -19 26 -19 137 0 108 2 125 18 134 13 8 2 10
-43 10 -33 -1 -52 -3 -42 -6z"/>
<path d="M890 731 c0 -6 4 -13 10 -16 6 -3 7 1 4 9 -7 18 -14 21 -14 7z"/>
<path d="M928 725 c-4 -4 -4 -13 -1 -21 3 -8 -1 -14 -8 -14 -9 -1 -8 -4 4 -11
9 -5 17 -19 17 -31 0 -14 5 -18 16 -14 9 3 18 6 21 6 4 0 -2 9 -11 19 -9 10
-20 31 -24 46 -4 14 -10 23 -14 20z"/>
<path d="M210 690 c0 -5 5 -10 11 -10 5 0 7 5 4 10 -3 6 -8 10 -11 10 -2 0 -4
-4 -4 -10z"/>
<path d="M20 643 c20 -42 77 -103 64 -69 -5 13 -1 23 11 32 15 11 16 16 5 29
-7 8 -16 12 -21 9 -5 -3 -9 -1 -9 4 0 9 -43 32 -60 32 -4 0 0 -17 10 -37z"/>
<path d="M180 643 c0 -14 3 -23 7 -19 10 10 11 46 1 46 -4 0 -8 -12 -8 -27z"/>
<path d="M289 644 c-13 -24 -12 -28 14 -50 16 -13 23 -24 18 -24 -6 0 -11 -14
-11 -31 0 -36 -20 -109 -30 -109 -4 0 -17 12 -31 26 -17 18 -24 37 -24 64 0
21 3 36 8 33 4 -2 7 11 7 29 l-1 33 -14 -25 c-8 -14 -15 -36 -15 -50 -1 -25
-1 -25 -16 5 l-14 30 6 -30 c5 -28 5 -29 -13 -13 -12 10 -24 13 -38 8 -20 -8
-20 -9 1 -9 11 -1 31 -13 45 -28 22 -25 22 -26 2 -9 -13 11 -23 14 -23 8 0 -6
14 -21 30 -34 17 -12 30 -25 30 -29 0 -10 -40 -21 -75 -21 -23 0 -24 -1 -8 -5
16 -3 26 -16 33 -44 6 -22 14 -38 18 -35 13 7 52 -13 52 -27 0 -8 18 4 41 25
l41 39 77 -72 c42 -40 89 -85 106 -101 l29 -28 -39 -40 c-36 -37 -37 -40 -16
-40 12 0 20 4 16 9 -3 5 9 20 26 32 l32 22 28 -31 c16 -18 34 -32 41 -32 7 0
-5 17 -26 39 l-37 38 103 97 c56 53 108 96 114 96 6 0 17 -6 23 -14 9 -10 8
-16 -4 -26 -12 -10 -15 -10 -15 4 0 9 -8 16 -17 16 -13 0 -15 -2 -5 -8 10 -7
10 -15 2 -36 -5 -15 -14 -25 -18 -22 -4 2 -9 -4 -9 -15 -2 -24 2 -24 28 2 12
12 18 27 14 37 -3 9 -3 13 1 9 4 -4 15 0 25 9 19 17 39 11 39 -12 0 -21 17
-17 23 6 3 11 13 20 22 20 11 0 15 -5 11 -16 -3 -9 -2 -12 5 -9 6 4 8 13 5 21
-3 8 -2 14 3 14 4 0 13 17 19 39 14 44 15 61 4 45 -5 -7 -15 -6 -32 3 l-25 13
27 0 c21 0 26 4 21 16 -3 8 -12 13 -19 10 -25 -9 -15 15 16 41 35 29 38 39 10
39 -11 0 -20 -6 -20 -12 0 -6 -7 -17 -15 -24 -12 -10 -15 -10 -15 3 0 9 -5 19
-12 23 -7 4 -8 3 -4 -4 4 -7 2 -12 -3 -12 -6 0 -11 5 -11 12 0 6 -3 8 -7 5 -3
-4 2 -16 12 -27 18 -20 18 -21 -10 -50 -16 -17 -33 -26 -37 -22 -5 5 -14 37
-21 72 -13 61 -12 64 9 87 22 23 22 27 7 49 -21 33 -29 30 -30 -13 -2 -71 -22
-181 -37 -211 -24 -46 -93 -100 -137 -107 -21 -4 -42 -11 -45 -16 -4 -6 -10
-6 -17 -1 -7 5 -26 13 -44 17 -44 9 -109 58 -130 97 -16 30 -30 119 -36 221
-2 43 -18 48 -38 11z m-19 -231 c0 -20 -18 -15 -30 6 -15 28 -12 33 10 19 11
-7 20 -18 20 -25z m594 25 c-16 -28 -27 -38 -36 -32 -5 3 -2 14 8 25 19 21 39
26 28 7z m-624 -48 c0 -5 -7 -10 -15 -10 -8 0 -15 5 -15 10 0 6 7 10 15 10 8
0 15 -4 15 -10z m650 0 c0 -5 -9 -10 -20 -10 -11 0 -20 5 -20 10 0 6 9 10 20
10 11 0 20 -4 20 -10z m-366 -137 c-6 -20 -3 -23 25 -23 28 0 31 3 26 23 -6
21 -3 22 34 22 l41 0 -47 -47 c-26 -27 -50 -48 -53 -48 -3 0 -29 22 -58 48
l-53 47 45 1 c43 1 45 0 40 -23z"/>
<path d="M870 651 c0 -11 4 -22 9 -25 4 -3 6 6 3 19 -5 30 -12 33 -12 6z"/>
<path d="M1028 649 c-10 -5 -15 -17 -12 -27 5 -14 4 -15 -5 -2 -9 13 -13 13
-28 -4 -10 -10 -13 -16 -8 -13 6 3 17 2 25 -3 13 -8 13 -13 2 -30 -12 -20 -11
-20 7 -10 20 10 71 77 71 92 0 11 -32 9 -52 -3z"/>
<path d="M895 610 c-3 -5 -1 -10 4 -10 6 0 11 5 11 10 0 6 -2 10 -4 10 -3 0
-8 -4 -11 -10z"/>
<path d="M916 591 c-4 -7 -5 -15 -2 -18 9 -9 19 4 14 18 -4 11 -6 11 -12 0z"/>
<path d="M841 574 c0 -11 3 -14 6 -6 3 7 2 16 -1 19 -3 4 -6 -2 -5 -13z"/>
<path d="M140 491 c16 -31 32 -36 18 -7 -6 14 -15 26 -20 26 -5 0 -4 -9 2 -19z"/>
<path d="M974 420 c16 -5 33 -15 37 -22 7 -10 9 -9 9 3 0 9 -10 19 -22 23 -36
9 -57 5 -24 -4z"/>
<path d="M82 390 c0 -14 2 -19 5 -12 2 6 2 18 0 25 -3 6 -5 1 -5 -13z"/>
<path d="M114 379 c-11 -18 14 -35 29 -20 10 10 9 11 -5 6 -10 -4 -18 -3 -18
3 0 6 8 13 18 15 15 4 15 5 0 6 -9 0 -20 -4 -24 -10z"/>
<path d="M946 381 c-10 -15 -7 -18 18 -23 10 -1 20 3 22 10 1 7 0 8 -3 2 -3
-7 -10 -5 -17 6 -10 13 -15 14 -20 5z"/>
<path d="M2347 361 c-63 -170 -104 -256 -127 -268 -23 -12 -19 -13 35 -12 33
1 52 3 43 6 -22 5 -22 11 -3 57 14 34 18 36 60 36 40 0 47 -3 56 -27 6 -16 12
-38 12 -50 2 -22 5 -23 117 -22 74 0 107 3 94 9 -18 7 -22 20 -28 95 -4 48 -5
90 -1 93 3 3 52 -40 108 -96 56 -56 106 -102 110 -102 4 0 7 60 7 134 0 109 3
138 16 150 14 15 11 16 -38 15 -42 0 -48 -2 -30 -9 21 -9 22 -15 22 -107 l0
-98 -107 108 c-58 59 -108 105 -110 103 -2 -2 -7 -66 -11 -142 l-7 -139 -31
-3 c-18 -2 -36 3 -43 11 -6 8 -36 74 -65 146 -29 72 -56 135 -60 138 -3 4 -12
-8 -19 -26z m29 -118 l13 -33 -34 0 -34 0 16 47 c9 27 18 41 21 33 3 -8 11
-30 18 -47z"/>
<path d="M1273 370 c15 -10 17 -28 17 -145 0 -119 -2 -134 -17 -138 -21 -5
105 -11 157 -7 51 3 107 36 127 73 23 43 22 124 -1 160 -32 48 -70 61 -191 64
-82 3 -106 1 -92 -7z m189 -37 c38 -18 58 -62 58 -123 0 -44 -4 -56 -30 -81
-26 -27 -35 -30 -82 -27 l-53 3 -3 114 c-1 63 0 121 3 128 6 16 63 9 107 -14z"/>
<path d="M1648 370 c21 -9 22 -14 22 -139 0 -113 -2 -131 -17 -140 -13 -8 7
-10 77 -8 l95 2 2 30 c1 17 0 23 -4 15 -9 -21 -24 -30 -55 -30 -34 0 -48 24
-48 84 0 44 1 46 28 46 31 0 47 -9 55 -30 3 -8 6 1 6 20 l1 35 -45 -3 -45 -4
0 51 0 51 40 0 c27 0 42 -6 49 -17 9 -15 10 -12 11 15 l0 32 -97 -1 c-69 0
-91 -3 -75 -9z"/>
<path d="M2055 355 c-43 -42 -30 -88 43 -151 36 -31 43 -42 40 -68 -3 -28 -7
-31 -40 -34 -33 -3 -40 1 -58 30 l-20 33 0 -38 c0 -32 4 -39 27 -48 64 -24
143 23 143 84 0 24 -13 43 -61 89 -34 34 -59 66 -57 75 8 41 76 42 96 1 10
-21 11 -20 11 15 l1 37 -50 0 c-41 0 -56 -5 -75 -25z"/>
<path d="M2917 373 c-4 -3 -7 -18 -7 -32 1 -23 2 -24 11 -8 7 12 23 17 54 17
l45 0 0 -125 c0 -108 -2 -125 -17 -134 -14 -8 -2 -10 47 -10 49 0 59 3 43 9
-22 9 -23 14 -23 135 l0 125 40 0 c27 0 43 -5 46 -15 9 -21 24 -8 24 21 l0 24
-128 0 c-71 0 -132 -3 -135 -7z"/>
<path d="M3283 360 c-37 -22 -73 -86 -73 -130 0 -48 24 -95 65 -126 32 -24 48
-29 96 -29 43 0 65 6 86 21 48 36 73 82 73 136 0 98 -53 148 -155 148 -42 0
-70 -6 -92 -20z m146 -26 c55 -46 64 -152 19 -209 -15 -20 -28 -25 -63 -25
-79 0 -125 72 -112 173 11 82 93 114 156 61z"/>
<path d="M3635 355 c-40 -39 -32 -67 35 -140 33 -35 60 -67 60 -70 0 -25 -24
-45 -53 -45 -37 0 -57 15 -57 43 0 10 -4 15 -10 12 -5 -3 -10 -20 -10 -36 0
-23 6 -32 27 -40 64 -24 143 21 143 82 0 26 -11 44 -60 91 -62 61 -69 75 -48
96 23 23 66 14 82 -15 l15 -28 1 38 0 37 -50 0 c-41 0 -56 -5 -75 -25z"/>
<path d="M310 329 c0 -11 4 -18 9 -14 5 3 13 0 17 -6 5 -8 3 -9 -5 -5 -8 6
-11 2 -9 -10 2 -14 -3 -19 -17 -17 -19 1 -18 0 3 -15 12 -10 46 -34 75 -56
l52 -39 -48 46 c-36 34 -47 51 -42 65 6 21 -13 72 -27 72 -4 0 -8 -9 -8 -21z"/>
<path d="M940 336 c0 -2 7 -7 16 -10 8 -3 12 -2 9 4 -6 10 -25 14 -25 6z"/>
<path d="M100 315 c0 -5 5 -17 10 -25 5 -8 10 -10 10 -5 0 6 -5 17 -10 25 -5
8 -10 11 -10 5z"/>
<path d="M145 307 c-15 -12 -16 -15 -4 -22 8 -5 11 -5 7 0 -4 4 0 14 10 21 23
18 11 18 -13 1z"/>
<path d="M290 306 c0 -2 8 -10 18 -17 15 -13 16 -12 3 4 -13 16 -21 21 -21 13z"/>
<path d="M976 295 c-9 -26 -7 -32 5 -12 6 10 9 21 6 23 -2 3 -7 -2 -11 -11z"/>
<path d="M260 283 c0 -5 10 -18 23 -29 l22 -19 -20 25 c-11 14 -21 27 -22 29
-2 2 -3 0 -3 -6z"/>
<path d="M798 283 c6 -2 10 -9 6 -14 -3 -5 0 -9 5 -9 6 0 11 7 11 15 0 8 -8
15 -17 14 -11 0 -13 -3 -5 -6z"/>
<path d="M219 262 c5 -10 18 -25 27 -33 11 -9 9 -2 -6 19 -26 35 -36 42 -21
14z"/>
<path d="M166 255 c4 -8 7 -15 9 -15 1 0 8 7 15 15 10 13 9 15 -8 15 -15 0
-20 -5 -16 -15z"/>
<path d="M900 261 c0 -17 18 -21 24 -6 3 9 0 15 -9 15 -8 0 -15 -4 -15 -9z"/>
<path d="M950 240 c-6 -11 -8 -20 -6 -20 3 0 10 9 16 20 6 11 8 20 6 20 -3 0
-10 -9 -16 -20z"/>
<path d="M207 226 c-4 -10 -1 -13 8 -9 8 3 12 9 9 14 -7 12 -11 11 -17 -5z"/>
<path d="M815 198 l-40 -43 43 40 c39 36 47 45 39 45 -2 0 -21 -19 -42 -42z"/>
<path d="M870 231 c0 -6 4 -13 10 -16 6 -3 7 1 4 9 -7 18 -14 21 -14 7z"/>
<path d="M686 204 c-15 -14 -26 -27 -24 -29 2 -3 17 9 33 25 35 36 30 39 -9 4z"/>
<path d="M159 202 c5 -10 18 -25 27 -33 11 -9 9 -2 -6 19 -26 35 -36 42 -21
14z"/>
<path d="M226 191 c-13 -14 -14 -21 -5 -27 8 -5 10 -3 4 6 -6 10 -4 12 8 7 12
-4 14 -2 10 10 -5 12 -3 14 7 8 9 -5 11 -4 6 3 -9 15 -10 15 -30 -7z"/>
<path d="M850 196 c0 -2 8 -10 18 -17 15 -13 16 -12 3 4 -13 16 -21 21 -21 13z"/>
<path d="M300 176 c0 -2 8 -10 18 -17 15 -13 16 -12 3 4 -13 16 -21 21 -21 13z"/>
<path d="M816 171 c-3 -5 0 -14 8 -20 10 -9 15 -8 19 3 9 22 -15 37 -27 17z"/>
<path d="M260 155 c-8 -11 -10 -16 -3 -12 7 4 13 0 15 -9 3 -15 4 -15 18 1 8
11 10 16 3 12 -7 -4 -13 0 -15 9 -3 15 -4 15 -18 -1z"/>
<path d="M884 148 l-19 -23 23 19 c21 18 27 26 19 26 -2 0 -12 -10 -23 -22z"/>
<path d="M744 144 c-18 -14 -18 -15 4 -4 12 6 22 13 22 15 0 8 -5 6 -26 -11z"/>
<path d="M230 125 c13 -14 26 -25 28 -25 3 0 -5 11 -18 25 -13 14 -26 25 -28
25 -3 0 5 -11 18 -25z"/>
<path d="M347 139 c7 -7 15 -10 18 -7 3 3 -2 9 -12 12 -14 6 -15 5 -6 -5z"/>
<path d="M776 141 c-3 -4 1 -17 9 -27 13 -17 14 -18 15 -1 0 9 -5 17 -11 17
-5 0 -7 5 -4 10 3 6 4 10 1 10 -3 0 -7 -4 -10 -9z"/>
<path d="M345 109 c-4 -6 -5 -12 -2 -15 2 -3 7 2 10 11 7 17 1 20 -8 4z"/>
<path d="M815 94 c-18 -16 -22 -22 -9 -15 18 9 53 42 43 41 -2 -1 -17 -12 -34
-26z"/>
<path d="M741 94 c13 -16 29 -19 29 -5 0 5 -9 11 -21 14 -16 4 -18 3 -8 -9z"/>
<path d="M538 83 c7 -3 16 -2 19 1 4 3 -2 6 -13 5 -11 0 -14 -3 -6 -6z"/>
<path d="M680 63 c0 -20 3 -24 9 -14 5 7 14 10 21 6 8 -5 7 0 -2 14 -18 29
-28 26 -28 -6z"/>
<path d="M650 66 c0 -8 4 -17 9 -20 5 -4 7 3 4 14 -6 23 -13 26 -13 6z"/>
<path d="M511 53 c0 -12 2 -14 6 -4 5 11 7 11 15 0 8 -12 9 -12 6 0 -6 22 -28
25 -27 4z"/>
<path d="M567 64 c-4 -4 -7 -14 -7 -23 0 -14 2 -14 10 -1 8 12 10 12 10 1 0
-8 3 -12 6 -8 3 3 2 13 -3 22 -5 8 -12 12 -16 9z"/>
<path d="M754 54 c-18 -14 -18 -15 4 -4 12 6 22 13 22 15 0 8 -5 6 -26 -11z"/>
<path d="M690 30 c-8 -5 -10 -10 -5 -10 6 0 17 5 25 10 8 5 11 10 5 10 -5 0
-17 -5 -25 -10z"/>
<path d="M523 3 c15 -2 39 -2 55 0 15 2 2 4 -28 4 -30 0 -43 -2 -27 -4z"/>
</g>
</svg>
